<svg xmlns="http://www.w3.org/2000/svg" xml:space="preserve" style="fill-rule:evenodd;clip-rule:evenodd;stroke-linejoin:round;stroke-miterlimit:2" viewBox="0 0 193 223"><path d="M383.346 340.949c1.983 1.143 2.975 1.714 3.766 2.441a9.7 9.7 0 0 1 2.908 5.036c.234 1.048.233 2.192.232 4.481l-.006 9.995c-.002 2.29-.002 3.436-.238 4.485a9.75 9.75 0 0 1-2.918 5.045c-.793.728-1.786 1.301-3.773 2.447l-5.895 3.402c-2.498 1.441-3.748 2.162-4.761 2.248a4.54 4.54 0 0 1-4.49-2.591c-.432-.918-.429-2.359-.425-5.239l.011-6.808c.004-2.291.005-3.436-.228-4.485a9.7 9.7 0 0 0-2.908-5.043c-.792-.727-1.784-1.299-3.77-2.443l-5.875-3.385c-2.495-1.437-3.742-2.156-4.321-2.989a4.54 4.54 0 0 1 .004-5.183c.581-.834 1.83-1.555 4.327-2.997l5.874-3.392c1.986-1.146 2.978-1.719 4.005-2.041a9.74 9.74 0 0 1 5.825-.005c1.026.32 2.018.892 4.002 2.035z" style="fill:#c83f49;fill-rule:nonzero" transform="translate(-503.023 -440.699)scale(1.43785)"/><path d="M411.514 414.885a9.75 9.75 0 0 1 5.825-.004c1.026.32 2.021.893 4.004 2.036l8.653 4.985c1.982 1.142 2.974 1.716 3.764 2.441a9.7 9.7 0 0 1 2.91 5.039c.234 1.048.231 2.192.23 4.478l-.005 9.995c-.001 2.291-.004 3.438-.239 4.487a9.74 9.74 0 0 1-2.915 5.044c-.793.728-1.788 1.3-3.775 2.447l-5.893 3.403c-2.498 1.441-3.748 2.16-4.761 2.246a4.54 4.54 0 0 1-4.492-2.588c-.431-.918-.43-2.359-.425-5.239l.01-6.807c.003-2.29.008-3.438-.225-4.487a9.7 9.7 0 0 0-2.91-5.044c-.791-.727-1.785-1.298-3.77-2.441l-5.874-3.384c-2.494-1.438-3.742-2.16-4.321-2.993a4.535 4.535 0 0 1 .005-5.181c.581-.834 1.829-1.556 4.326-2.998l5.874-3.389c1.986-1.146 2.978-1.723 4.004-2.046M364.864 387.903a9.75 9.75 0 0 1 5.825-.005c1.026.32 2.02.893 4.004 2.036l8.652 4.986c1.983 1.142 2.974 1.715 3.765 2.441a9.7 9.7 0 0 1 2.91 5.034c.234 1.048.231 2.194.23 4.483l-.005 9.995c-.002 2.289-.004 3.433-.24 4.482a9.76 9.76 0 0 1-2.915 5.049c-.792.728-1.788 1.3-3.774 2.446l-5.894 3.399c-2.498 1.441-3.748 2.165-4.76 2.251a4.54 4.54 0 0 1-4.493-2.593c-.43-.919-.429-2.36-.424-5.239l.009-6.807c.004-2.291.009-3.438-.224-4.487a9.7 9.7 0 0 0-2.91-5.039c-.792-.728-1.785-1.303-3.77-2.447l-5.874-3.383c-2.494-1.438-3.742-2.156-4.321-2.989a4.54 4.54 0 0 1 .005-5.185c.581-.834 1.83-1.553 4.326-2.993l5.874-3.394c1.985-1.146 2.978-1.719 4.004-2.041M458.165 387.903a9.75 9.75 0 0 1 5.825-.005c1.026.32 2.02.893 4.004 2.036l8.652 4.986c1.983 1.142 2.974 1.715 3.765 2.441a9.7 9.7 0 0 1 2.91 5.034c.234 1.048.231 2.194.229 4.483l-.005 9.995c-.001 2.289-.004 3.433-.239 4.482a9.76 9.76 0 0 1-2.915 5.049c-.792.728-1.788 1.3-3.774 2.446l-5.894 3.399c-2.498 1.441-3.748 2.165-4.761 2.251a4.54 4.54 0 0 1-4.492-2.593c-.431-.919-.429-2.36-.425-5.239l.01-6.807c.004-2.291.009-3.438-.224-4.487a9.7 9.7 0 0 0-2.911-5.039c-.791-.728-1.784-1.303-3.769-2.447l-5.874-3.383c-2.494-1.438-3.742-2.156-4.321-2.989a4.54 4.54 0 0 1 .004-5.185c.582-.834 1.831-1.553 4.327-2.993l5.874-3.394c1.985-1.146 2.977-1.719 4.004-2.041M411.514 360.916a9.75 9.75 0 0 1 5.825-.005c1.026.32 2.021.893 4.004 2.036l8.653 4.985c1.982 1.142 2.974 1.716 3.764 2.442a9.7 9.7 0 0 1 2.91 5.039c.234 1.047.231 2.191.23 4.477l-.005 9.995c-.001 2.291-.004 3.439-.239 4.488a9.75 9.75 0 0 1-2.915 5.044c-.793.728-1.788 1.3-3.775 2.446l-5.893 3.403c-2.498 1.442-3.748 2.161-4.761 2.246a4.54 4.54 0 0 1-4.492-2.588c-.431-.918-.43-2.359-.425-5.239l.01-6.806c.003-2.291.008-3.439-.225-4.488a9.7 9.7 0 0 0-2.91-5.044c-.791-.727-1.785-1.298-3.77-2.441l-5.874-3.384c-2.494-1.437-3.742-2.16-4.321-2.993a4.535 4.535 0 0 1 .005-5.181c.581-.834 1.829-1.556 4.326-2.998l5.874-3.388c1.986-1.147 2.978-1.724 4.004-2.046M458.165 333.933a9.75 9.75 0 0 1 5.825-.005c1.026.321 2.02.894 4.004 2.037l8.652 4.985c1.983 1.142 2.974 1.715 3.765 2.441a9.7 9.7 0 0 1 2.91 5.034c.234 1.048.231 2.194.229 4.483l-.005 9.995c-.001 2.289-.004 3.434-.239 4.482a9.74 9.74 0 0 1-2.915 5.044c-.793.728-1.787 1.305-3.774 2.452l-5.894 3.398c-2.498 1.441-3.748 2.165-4.761 2.251a4.54 4.54 0 0 1-4.492-2.593c-.431-.918-.429-2.36-.425-5.239l.01-6.807c.004-2.291.009-3.438-.224-4.487a9.7 9.7 0 0 0-2.911-5.039c-.791-.727-1.784-1.303-3.769-2.446l-5.874-3.384c-2.494-1.437-3.742-2.156-4.321-2.988a4.54 4.54 0 0 1 .004-5.186c.581-.833 1.831-1.552 4.327-2.993l5.874-3.394c1.985-1.146 2.977-1.719 4.004-2.041M411.514 306.946a9.75 9.75 0 0 1 5.825-.005c1.026.32 2.021.893 4.004 2.036l8.653 4.986c1.982 1.142 2.974 1.715 3.764 2.441a9.7 9.7 0 0 1 2.91 5.039c.234 1.047.231 2.191.23 4.478l-.005 9.995c-.001 2.29-.004 3.438-.239 4.487a9.76 9.76 0 0 1-2.915 5.044c-.793.728-1.788 1.3-3.775 2.446l-5.893 3.404c-2.498 1.441-3.748 2.16-4.761 2.246a4.54 4.54 0 0 1-4.492-2.588c-.431-.919-.43-2.36-.425-5.24l.01-6.811c.003-2.289.008-3.434-.225-4.482a9.7 9.7 0 0 0-2.91-5.044c-.791-.727-1.785-1.298-3.77-2.442l-5.874-3.388c-2.494-1.438-3.742-2.156-4.321-2.989a4.53 4.53 0 0 1 .005-5.18c.581-.834 1.829-1.557 4.326-2.998l5.874-3.389c1.986-1.146 2.978-1.724 4.004-2.046" style="fill:#2845c1;fill-rule:nonzero" transform="translate(-503.023 -440.699)scale(1.43785)"/></svg>