<svg width="120" height="92" viewBox="0 0 120 92" fill="none" xmlns="http://www.w3.org/2000/svg">
<path d="M106.239 2.36108C106.401 2.36117 106.533 2.49283 106.533 2.65503V12.0564H117.33C117.492 12.0566 117.624 12.188 117.624 12.3503C117.624 12.5125 117.492 12.6441 117.33 12.6443H106.533V24.1746H117.33C117.492 24.1748 117.624 24.3062 117.624 24.4685C117.624 24.6308 117.492 24.7622 117.33 24.7625H106.533V36.2927H117.33C117.492 36.2929 117.624 36.4246 117.624 36.5867C117.624 36.7489 117.492 36.8804 117.33 36.8806H106.533V48.4119H117.33C117.492 48.4121 117.624 48.5435 117.624 48.7058C117.624 48.868 117.492 48.9995 117.33 48.9998H106.533V60.53H117.33C117.492 60.5302 117.624 60.6618 117.624 60.824C117.624 60.9862 117.492 61.1177 117.33 61.1179H106.533V72.6492H117.33C117.492 72.6494 117.624 72.7808 117.624 72.9431C117.624 73.1052 117.492 73.2368 117.33 73.2371H106.533V82.6375C106.533 82.7997 106.402 82.9313 106.239 82.9314C106.077 82.9312 105.945 82.7997 105.945 82.6375V73.2371H91.3232V82.6375C91.3231 82.7998 91.1916 82.9314 91.0293 82.9314C90.8671 82.9312 90.7355 82.7996 90.7354 82.6375V73.2371H76.1143V82.6375C76.1141 82.7998 75.9827 82.9314 75.8203 82.9314C75.6581 82.9312 75.5265 82.7997 75.5264 82.6375V73.2371H60.9043V82.6375C60.9041 82.7998 60.7727 82.9314 60.6104 82.9314C60.4483 82.9311 60.3166 82.7996 60.3164 82.6375V73.2371H45.6953V82.6375C45.6952 82.7996 45.5635 82.9312 45.4014 82.9314C45.2392 82.9312 45.1076 82.7997 45.1074 82.6375V73.2371H30.4854V82.6375C30.4852 82.7997 30.3537 82.9313 30.1914 82.9314C30.0292 82.9312 29.8976 82.7997 29.8975 82.6375V73.2371H15.2754V82.6375C15.2752 82.7998 15.1438 82.9314 14.9814 82.9314C14.8193 82.9311 14.6877 82.7996 14.6875 82.6375V73.2371H3.25781C3.0956 73.237 2.96414 73.1053 2.96387 72.9431C2.96387 72.7807 3.09543 72.6492 3.25781 72.6492H14.6875V61.1179H3.25781C3.09546 61.1179 2.96391 60.9863 2.96387 60.824C2.96396 60.6617 3.09549 60.5301 3.25781 60.53H14.6875V48.9998H3.25781C3.09552 48.9997 2.96401 48.8681 2.96387 48.7058C2.96387 48.5434 3.09543 48.4119 3.25781 48.4119H14.6875V36.8806H3.25781C3.09546 36.8806 2.96391 36.749 2.96387 36.5867C2.96409 36.4245 3.09557 36.2928 3.25781 36.2927H14.6875V24.7625H3.25781C3.09546 24.7624 2.96391 24.6309 2.96387 24.4685C2.9639 24.3061 3.09545 24.1746 3.25781 24.1746H14.6875V12.6443H3.25781C3.09556 12.6442 2.96408 12.5126 2.96387 12.3503C2.96387 12.1879 3.09543 12.0565 3.25781 12.0564H14.6875V2.65503C14.6877 2.49293 14.8194 2.36133 14.9814 2.36108C15.1437 2.36108 15.2752 2.49278 15.2754 2.65503V12.0564H29.8975V2.65503C29.8977 2.49287 30.0292 2.36124 30.1914 2.36108C30.3537 2.36115 30.4851 2.49282 30.4854 2.65503V12.0564H45.1074V2.65503C45.1076 2.49287 45.2392 2.36124 45.4014 2.36108C45.5635 2.3613 45.6951 2.49291 45.6953 2.65503V12.0564H60.3164V2.65503C60.3166 2.49297 60.4483 2.3614 60.6104 2.36108C60.7727 2.36108 60.9041 2.49278 60.9043 2.65503V12.0564H75.5264V2.65503C75.5266 2.49288 75.6581 2.36124 75.8203 2.36108C75.9826 2.36108 76.114 2.49278 76.1143 2.65503V12.0564H90.7354V2.65503C90.7356 2.49291 90.8672 2.3613 91.0293 2.36108C91.1916 2.36108 91.323 2.49278 91.3232 2.65503V12.0564H105.945V2.65503C105.946 2.49287 106.077 2.36124 106.239 2.36108ZM15.2754 61.1179V72.6492H29.8975V61.1179H15.2754ZM30.4854 61.1179V72.6492H45.1074V61.1179H30.4854ZM45.6953 61.1179V72.6492H60.3164V61.1179H45.6953ZM60.9043 61.1179V72.6492H75.5264V61.1179H60.9043ZM76.1143 61.1179V72.6492H90.7354V61.1179H76.1143ZM91.3232 61.1179V72.6492H105.945V61.1179H91.3232ZM15.2754 48.9998V60.53H29.8975V48.9998H15.2754ZM30.4854 48.9998V60.53H45.1074V48.9998H30.4854ZM45.6953 48.9998V60.53H60.3164V48.9998H45.6953ZM60.9043 48.9998V60.53H75.5264V48.9998H60.9043ZM76.1143 48.9998V60.53H90.7354V48.9998H76.1143ZM91.3232 48.9998V60.53H105.945V48.9998H91.3232ZM15.2754 36.8806V48.4119H29.8975V36.8806H15.2754ZM30.4854 36.8806V48.4119H45.1074V36.8806H30.4854ZM45.6953 36.8806V48.4119H60.3164V36.8806H45.6953ZM60.9043 36.8806V48.4119H75.5264V36.8806H60.9043ZM76.1143 36.8806V48.4119H90.7354V36.8806H76.1143ZM91.3232 36.8806V48.4119H105.945V36.8806H91.3232ZM15.2754 24.7625V36.2927H29.8975V24.7625H15.2754ZM30.4854 24.7625V36.2927H45.1074V24.7625H30.4854ZM45.6953 24.7625V36.2927H60.3164V24.7625H45.6953ZM60.9043 24.7625V36.2927H75.5264V24.7625H60.9043ZM76.1143 24.7625V36.2927H90.7354V24.7625H76.1143ZM91.3232 24.7625V36.2927H105.945V24.7625H91.3232ZM15.2754 12.6443V24.1746H29.8975V12.6443H15.2754ZM30.4854 12.6443V24.1746H45.1074V12.6443H30.4854ZM45.6953 12.6443V24.1746H60.3164V12.6443H45.6953ZM60.9043 12.6443V24.1746H75.5264V12.6443H60.9043ZM76.1143 12.6443V24.1746H90.7354V12.6443H76.1143ZM91.3232 12.6443V24.1746H105.945V12.6443H91.3232Z" fill="#DFE2EA"/>
<path d="M106.239 2.36108C106.401 2.36117 106.533 2.49283 106.533 2.65503V12.0564H117.33C117.492 12.0566 117.624 12.188 117.624 12.3503C117.624 12.5125 117.492 12.6441 117.33 12.6443H106.533V24.1746H117.33C117.492 24.1748 117.624 24.3062 117.624 24.4685C117.624 24.6308 117.492 24.7622 117.33 24.7625H106.533V36.2927H117.33C117.492 36.2929 117.624 36.4246 117.624 36.5867C117.624 36.7489 117.492 36.8804 117.33 36.8806H106.533V48.4119H117.33C117.492 48.4121 117.624 48.5435 117.624 48.7058C117.624 48.868 117.492 48.9995 117.33 48.9998H106.533V60.53H117.33C117.492 60.5302 117.624 60.6618 117.624 60.824C117.624 60.9862 117.492 61.1177 117.33 61.1179H106.533V72.6492H117.33C117.492 72.6494 117.624 72.7808 117.624 72.9431C117.624 73.1052 117.492 73.2368 117.33 73.2371H106.533V82.6375C106.533 82.7997 106.402 82.9313 106.239 82.9314C106.077 82.9312 105.945 82.7997 105.945 82.6375V73.2371H91.3232V82.6375C91.3231 82.7998 91.1916 82.9314 91.0293 82.9314C90.8671 82.9312 90.7355 82.7996 90.7354 82.6375V73.2371H76.1143V82.6375C76.1141 82.7998 75.9827 82.9314 75.8203 82.9314C75.6581 82.9312 75.5265 82.7997 75.5264 82.6375V73.2371H60.9043V82.6375C60.9041 82.7998 60.7727 82.9314 60.6104 82.9314C60.4483 82.9311 60.3166 82.7996 60.3164 82.6375V73.2371H45.6953V82.6375C45.6952 82.7996 45.5635 82.9312 45.4014 82.9314C45.2392 82.9312 45.1076 82.7997 45.1074 82.6375V73.2371H30.4854V82.6375C30.4852 82.7997 30.3537 82.9313 30.1914 82.9314C30.0292 82.9312 29.8976 82.7997 29.8975 82.6375V73.2371H15.2754V82.6375C15.2752 82.7998 15.1438 82.9314 14.9814 82.9314C14.8193 82.9311 14.6877 82.7996 14.6875 82.6375V73.2371H3.25781C3.0956 73.237 2.96414 73.1053 2.96387 72.9431C2.96387 72.7807 3.09543 72.6492 3.25781 72.6492H14.6875V61.1179H3.25781C3.09546 61.1179 2.96391 60.9863 2.96387 60.824C2.96396 60.6617 3.09549 60.5301 3.25781 60.53H14.6875V48.9998H3.25781C3.09552 48.9997 2.96401 48.8681 2.96387 48.7058C2.96387 48.5434 3.09543 48.4119 3.25781 48.4119H14.6875V36.8806H3.25781C3.09546 36.8806 2.96391 36.749 2.96387 36.5867C2.96409 36.4245 3.09557 36.2928 3.25781 36.2927H14.6875V24.7625H3.25781C3.09546 24.7624 2.96391 24.6309 2.96387 24.4685C2.9639 24.3061 3.09545 24.1746 3.25781 24.1746H14.6875V12.6443H3.25781C3.09556 12.6442 2.96408 12.5126 2.96387 12.3503C2.96387 12.1879 3.09543 12.0565 3.25781 12.0564H14.6875V2.65503C14.6877 2.49293 14.8194 2.36133 14.9814 2.36108C15.1437 2.36108 15.2752 2.49278 15.2754 2.65503V12.0564H29.8975V2.65503C29.8977 2.49287 30.0292 2.36124 30.1914 2.36108C30.3537 2.36115 30.4851 2.49282 30.4854 2.65503V12.0564H45.1074V2.65503C45.1076 2.49287 45.2392 2.36124 45.4014 2.36108C45.5635 2.3613 45.6951 2.49291 45.6953 2.65503V12.0564H60.3164V2.65503C60.3166 2.49297 60.4483 2.3614 60.6104 2.36108C60.7727 2.36108 60.9041 2.49278 60.9043 2.65503V12.0564H75.5264V2.65503C75.5266 2.49288 75.6581 2.36124 75.8203 2.36108C75.9826 2.36108 76.114 2.49278 76.1143 2.65503V12.0564H90.7354V2.65503C90.7356 2.49291 90.8672 2.3613 91.0293 2.36108C91.1916 2.36108 91.323 2.49278 91.3232 2.65503V12.0564H105.945V2.65503C105.946 2.49287 106.077 2.36124 106.239 2.36108ZM15.2754 61.1179V72.6492H29.8975V61.1179H15.2754ZM30.4854 61.1179V72.6492H45.1074V61.1179H30.4854ZM45.6953 61.1179V72.6492H60.3164V61.1179H45.6953ZM60.9043 61.1179V72.6492H75.5264V61.1179H60.9043ZM76.1143 61.1179V72.6492H90.7354V61.1179H76.1143ZM91.3232 61.1179V72.6492H105.945V61.1179H91.3232ZM15.2754 48.9998V60.53H29.8975V48.9998H15.2754ZM30.4854 48.9998V60.53H45.1074V48.9998H30.4854ZM45.6953 48.9998V60.53H60.3164V48.9998H45.6953ZM60.9043 48.9998V60.53H75.5264V48.9998H60.9043ZM76.1143 48.9998V60.53H90.7354V48.9998H76.1143ZM91.3232 48.9998V60.53H105.945V48.9998H91.3232ZM15.2754 36.8806V48.4119H29.8975V36.8806H15.2754ZM30.4854 36.8806V48.4119H45.1074V36.8806H30.4854ZM45.6953 36.8806V48.4119H60.3164V36.8806H45.6953ZM60.9043 36.8806V48.4119H75.5264V36.8806H60.9043ZM76.1143 36.8806V48.4119H90.7354V36.8806H76.1143ZM91.3232 36.8806V48.4119H105.945V36.8806H91.3232ZM15.2754 24.7625V36.2927H29.8975V24.7625H15.2754ZM30.4854 24.7625V36.2927H45.1074V24.7625H30.4854ZM45.6953 24.7625V36.2927H60.3164V24.7625H45.6953ZM60.9043 24.7625V36.2927H75.5264V24.7625H60.9043ZM76.1143 24.7625V36.2927H90.7354V24.7625H76.1143ZM91.3232 24.7625V36.2927H105.945V24.7625H91.3232ZM15.2754 12.6443V24.1746H29.8975V12.6443H15.2754ZM30.4854 12.6443V24.1746H45.1074V12.6443H30.4854ZM45.6953 12.6443V24.1746H60.3164V12.6443H45.6953ZM60.9043 12.6443V24.1746H75.5264V12.6443H60.9043ZM76.1143 12.6443V24.1746H90.7354V12.6443H76.1143ZM91.3232 12.6443V24.1746H105.945V12.6443H91.3232Z" fill="url(#paint0_radial_16004_17331)"/>
<g filter="url(#filter0_d_16004_17331)">
<path d="M44.5156 6.19922C42.9884 6.19926 41.6533 6.49895 40.5244 7.11426L40.3164 7.23047C39.2895 7.82879 38.494 8.65972 37.9355 9.71777C37.3302 10.8463 37.0352 12.1763 37.0352 13.6943V25.1807C37.0352 26.6987 37.3302 28.0297 37.9355 29.1582L37.9365 29.1572C38.5321 30.2857 39.3964 31.1566 40.5244 31.7617C41.6532 32.3672 42.9885 32.6621 44.5156 32.6621H53.54L58.8711 37.3945C59.2792 37.7628 59.6543 38.0433 59.9941 38.2188L59.9951 38.2178C60.3449 38.4078 60.7168 38.5068 61.1074 38.5068C61.6777 38.5068 62.1661 38.32 62.5205 37.915C62.8666 37.5195 63.0195 37.0022 63.0195 36.4072V32.6621H63.9648C65.3632 32.6621 66.6168 32.3647 67.7139 31.7598L67.7148 31.7588C68.803 31.1531 69.6599 30.2844 70.2822 29.1621L70.2832 29.1602C70.8991 28.0311 71.1992 26.6997 71.1992 25.1807V13.6943C71.1992 12.1763 70.9041 10.8463 70.2988 9.71777C69.6941 8.5903 68.8296 7.71977 67.7109 7.11426C66.5819 6.49869 65.2463 6.19925 63.7188 6.19922H44.5156Z" fill="white"/>
<path d="M44.5156 6.19922C42.9884 6.19926 41.6533 6.49895 40.5244 7.11426L40.3164 7.23047C39.2895 7.82879 38.494 8.65972 37.9355 9.71777C37.3302 10.8463 37.0352 12.1763 37.0352 13.6943V25.1807C37.0352 26.6987 37.3302 28.0297 37.9355 29.1582L37.9365 29.1572C38.5321 30.2857 39.3964 31.1566 40.5244 31.7617C41.6532 32.3672 42.9885 32.6621 44.5156 32.6621H53.54L58.8711 37.3945C59.2792 37.7628 59.6543 38.0433 59.9941 38.2188L59.9951 38.2178C60.3449 38.4078 60.7168 38.5068 61.1074 38.5068C61.6777 38.5068 62.1661 38.32 62.5205 37.915C62.8666 37.5195 63.0195 37.0022 63.0195 36.4072V32.6621H63.9648C65.3632 32.6621 66.6168 32.3647 67.7139 31.7598L67.7148 31.7588C68.803 31.1531 69.6599 30.2844 70.2822 29.1621L70.2832 29.1602C70.8991 28.0311 71.1992 26.6997 71.1992 25.1807V13.6943C71.1992 12.1763 70.9041 10.8463 70.2988 9.71777C69.6941 8.5903 68.8296 7.71977 67.7109 7.11426C66.5819 6.49869 65.2463 6.19925 63.7188 6.19922H44.5156Z" fill="url(#paint1_linear_16004_17331)"/>
<path d="M44.5156 6.19922C42.9884 6.19926 41.6533 6.49895 40.5244 7.11426L40.3164 7.23047C39.2895 7.82879 38.494 8.65972 37.9355 9.71777C37.3302 10.8463 37.0352 12.1763 37.0352 13.6943V25.1807C37.0352 26.6987 37.3302 28.0297 37.9355 29.1582L37.9365 29.1572C38.5321 30.2857 39.3964 31.1566 40.5244 31.7617C41.6532 32.3672 42.9885 32.6621 44.5156 32.6621H53.54L58.8711 37.3945C59.2792 37.7628 59.6543 38.0433 59.9941 38.2188L59.9951 38.2178C60.3449 38.4078 60.7168 38.5068 61.1074 38.5068C61.6777 38.5068 62.1661 38.32 62.5205 37.915C62.8666 37.5195 63.0195 37.0022 63.0195 36.4072V32.6621H63.9648C65.3632 32.6621 66.6168 32.3647 67.7139 31.7598L67.7148 31.7588C68.803 31.1531 69.6599 30.2844 70.2822 29.1621L70.2832 29.1602C70.8991 28.0311 71.1992 26.6997 71.1992 25.1807V13.6943C71.1992 12.1763 70.9041 10.8463 70.2988 9.71777C69.6941 8.5903 68.8296 7.71977 67.7109 7.11426C66.5819 6.49869 65.2463 6.19925 63.7188 6.19922H44.5156Z" stroke="#6D778C" stroke-width="0.747792"/>
<path d="M44.5156 6.19922C42.9884 6.19926 41.6533 6.49895 40.5244 7.11426L40.3164 7.23047C39.2895 7.82879 38.494 8.65972 37.9355 9.71777C37.3302 10.8463 37.0352 12.1763 37.0352 13.6943V25.1807C37.0352 26.6987 37.3302 28.0297 37.9355 29.1582L37.9365 29.1572C38.5321 30.2857 39.3964 31.1566 40.5244 31.7617C41.6532 32.3672 42.9885 32.6621 44.5156 32.6621H53.54L58.8711 37.3945C59.2792 37.7628 59.6543 38.0433 59.9941 38.2188L59.9951 38.2178C60.3449 38.4078 60.7168 38.5068 61.1074 38.5068C61.6777 38.5068 62.1661 38.32 62.5205 37.915C62.8666 37.5195 63.0195 37.0022 63.0195 36.4072V32.6621H63.9648C65.3632 32.6621 66.6168 32.3647 67.7139 31.7598L67.7148 31.7588C68.803 31.1531 69.6599 30.2844 70.2822 29.1621L70.2832 29.1602C70.8991 28.0311 71.1992 26.6997 71.1992 25.1807V13.6943C71.1992 12.1763 70.9041 10.8463 70.2988 9.71777C69.6941 8.5903 68.8296 7.71977 67.7109 7.11426C66.5819 6.49869 65.2463 6.19925 63.7188 6.19922H44.5156Z" stroke="#F6F8F9" stroke-opacity="0.8" stroke-width="0.747792"/>
<path d="M44.5156 6.19922C42.9884 6.19926 41.6533 6.49895 40.5244 7.11426L40.3164 7.23047C39.2895 7.82879 38.494 8.65972 37.9355 9.71777C37.3302 10.8463 37.0352 12.1763 37.0352 13.6943V25.1807C37.0352 26.6987 37.3302 28.0297 37.9355 29.1582L37.9365 29.1572C38.5321 30.2857 39.3964 31.1566 40.5244 31.7617C41.6532 32.3672 42.9885 32.6621 44.5156 32.6621H53.54L58.8711 37.3945C59.2792 37.7628 59.6543 38.0433 59.9941 38.2188L59.9951 38.2178C60.3449 38.4078 60.7168 38.5068 61.1074 38.5068C61.6777 38.5068 62.1661 38.32 62.5205 37.915C62.8666 37.5195 63.0195 37.0022 63.0195 36.4072V32.6621H63.9648C65.3632 32.6621 66.6168 32.3647 67.7139 31.7598L67.7148 31.7588C68.803 31.1531 69.6599 30.2844 70.2822 29.1621L70.2832 29.1602C70.8991 28.0311 71.1992 26.6997 71.1992 25.1807V13.6943C71.1992 12.1763 70.9041 10.8463 70.2988 9.71777C69.6941 8.5903 68.8296 7.71977 67.7109 7.11426C66.5819 6.49869 65.2463 6.19925 63.7188 6.19922H44.5156Z" stroke="url(#paint2_linear_16004_17331)" stroke-opacity="0.47" stroke-width="0.747792"/>
<path fill-rule="evenodd" clip-rule="evenodd" d="M41.7217 12.8789C41.7217 12.2653 42.2191 11.7678 42.8328 11.7678L65.4011 11.7678C66.0148 11.7678 66.5123 12.2653 66.5123 12.8789C66.5123 13.4926 66.0148 13.99 65.4011 13.99L42.8328 13.99C42.2191 13.99 41.7217 13.4926 41.7217 12.8789ZM41.7217 16.2123C41.7217 15.5986 42.2191 15.1012 42.8328 15.1012H65.4011C66.0148 15.1012 66.5123 15.5986 66.5123 16.2123C66.5123 16.8259 66.0148 17.3234 65.4011 17.3234H42.8328C42.2191 17.3234 41.7217 16.8259 41.7217 16.2123ZM41.7217 19.5456C41.7217 18.9319 42.2191 18.4345 42.8328 18.4345H65.4011C66.0148 18.4345 66.5123 18.9319 66.5123 19.5456C66.5123 20.1592 66.0148 20.6567 65.4011 20.6567L42.8328 20.6567C42.2191 20.6567 41.7217 20.1592 41.7217 19.5456ZM41.7217 22.8789C41.7217 22.2653 42.2191 21.7678 42.8328 21.7678H51.6512C52.2648 21.7678 52.7623 22.2653 52.7623 22.8789C52.7623 23.4926 52.2648 23.99 51.6512 23.99H42.8328C42.2191 23.99 41.7217 23.4926 41.7217 22.8789Z" fill="#6D778C"/>
<path fill-rule="evenodd" clip-rule="evenodd" d="M41.7217 12.8789C41.7217 12.2653 42.2191 11.7678 42.8328 11.7678L65.4011 11.7678C66.0148 11.7678 66.5123 12.2653 66.5123 12.8789C66.5123 13.4926 66.0148 13.99 65.4011 13.99L42.8328 13.99C42.2191 13.99 41.7217 13.4926 41.7217 12.8789ZM41.7217 16.2123C41.7217 15.5986 42.2191 15.1012 42.8328 15.1012H65.4011C66.0148 15.1012 66.5123 15.5986 66.5123 16.2123C66.5123 16.8259 66.0148 17.3234 65.4011 17.3234H42.8328C42.2191 17.3234 41.7217 16.8259 41.7217 16.2123ZM41.7217 19.5456C41.7217 18.9319 42.2191 18.4345 42.8328 18.4345H65.4011C66.0148 18.4345 66.5123 18.9319 66.5123 19.5456C66.5123 20.1592 66.0148 20.6567 65.4011 20.6567L42.8328 20.6567C42.2191 20.6567 41.7217 20.1592 41.7217 19.5456ZM41.7217 22.8789C41.7217 22.2653 42.2191 21.7678 42.8328 21.7678H51.6512C52.2648 21.7678 52.7623 22.2653 52.7623 22.8789C52.7623 23.4926 52.2648 23.99 51.6512 23.99H42.8328C42.2191 23.99 41.7217 23.4926 41.7217 22.8789Z" fill="#F6F8F9" fill-opacity="0.65"/>
<path fill-rule="evenodd" clip-rule="evenodd" d="M41.7217 12.8789C41.7217 12.2653 42.2191 11.7678 42.8328 11.7678L65.4011 11.7678C66.0148 11.7678 66.5123 12.2653 66.5123 12.8789C66.5123 13.4926 66.0148 13.99 65.4011 13.99L42.8328 13.99C42.2191 13.99 41.7217 13.4926 41.7217 12.8789ZM41.7217 16.2123C41.7217 15.5986 42.2191 15.1012 42.8328 15.1012H65.4011C66.0148 15.1012 66.5123 15.5986 66.5123 16.2123C66.5123 16.8259 66.0148 17.3234 65.4011 17.3234H42.8328C42.2191 17.3234 41.7217 16.8259 41.7217 16.2123ZM41.7217 19.5456C41.7217 18.9319 42.2191 18.4345 42.8328 18.4345H65.4011C66.0148 18.4345 66.5123 18.9319 66.5123 19.5456C66.5123 20.1592 66.0148 20.6567 65.4011 20.6567L42.8328 20.6567C42.2191 20.6567 41.7217 20.1592 41.7217 19.5456ZM41.7217 22.8789C41.7217 22.2653 42.2191 21.7678 42.8328 21.7678H51.6512C52.2648 21.7678 52.7623 22.2653 52.7623 22.8789C52.7623 23.4926 52.2648 23.99 51.6512 23.99H42.8328C42.2191 23.99 41.7217 23.4926 41.7217 22.8789Z" stroke="url(#paint3_linear_16004_17331)" stroke-opacity="0.35" stroke-width="2.35294" stroke-linecap="round"/>
</g>
<g filter="url(#filter1_d_16004_17331)">
<path d="M94.2607 43.1663C95.9622 43.1663 97.447 43.5002 98.7012 44.1838L98.9326 44.3127C100.073 44.9773 100.956 45.9003 101.576 47.0754C102.249 48.3291 102.577 49.8083 102.577 51.4993V64.3372C102.577 66.028 102.25 67.5073 101.577 68.761C100.916 70.0147 99.9545 70.9813 98.7012 71.6536C97.4472 72.3262 95.962 72.6536 94.2607 72.6536H84.1592L78.1875 77.9543L78.1885 77.9553C77.7338 78.3657 77.3175 78.6757 76.9424 78.8694L76.9414 78.8684C76.556 79.0781 76.1465 79.1868 75.7168 79.1868C75.0896 79.1867 74.5571 78.9817 74.1709 78.5403C73.793 78.1084 73.6251 77.5416 73.625 76.884V72.6536H72.5234C70.9671 72.6535 69.5742 72.3236 68.3555 71.6516L68.3545 71.6506C67.1457 70.9778 66.1937 70.0132 65.502 68.7659L65.501 68.7629C64.817 67.5088 64.4824 66.029 64.4824 64.3372V51.4993C64.4824 49.8083 64.811 48.3291 65.4834 47.0754C66.1132 45.9013 66.9963 44.9787 68.1279 44.3137L68.3584 44.1838C69.6125 43.5001 71.0974 43.1663 72.7988 43.1663H94.2607Z" fill="white"/>
<path d="M94.2607 43.1663C95.9622 43.1663 97.447 43.5002 98.7012 44.1838L98.9326 44.3127C100.073 44.9773 100.956 45.9003 101.576 47.0754C102.249 48.3291 102.577 49.8083 102.577 51.4993V64.3372C102.577 66.028 102.25 67.5073 101.577 68.761C100.916 70.0147 99.9545 70.9813 98.7012 71.6536C97.4472 72.3262 95.962 72.6536 94.2607 72.6536H84.1592L78.1875 77.9543L78.1885 77.9553C77.7338 78.3657 77.3175 78.6757 76.9424 78.8694L76.9414 78.8684C76.556 79.0781 76.1465 79.1868 75.7168 79.1868C75.0896 79.1867 74.5571 78.9817 74.1709 78.5403C73.793 78.1084 73.6251 77.5416 73.625 76.884V72.6536H72.5234C70.9671 72.6535 69.5742 72.3236 68.3555 71.6516L68.3545 71.6506C67.1457 70.9778 66.1937 70.0132 65.502 68.7659L65.501 68.7629C64.817 67.5088 64.4824 66.029 64.4824 64.3372V51.4993C64.4824 49.8083 64.811 48.3291 65.4834 47.0754C66.1132 45.9013 66.9963 44.9787 68.1279 44.3137L68.3584 44.1838C69.6125 43.5001 71.0974 43.1663 72.7988 43.1663H94.2607Z" fill="url(#paint4_linear_16004_17331)"/>
<path d="M94.2607 43.1663C95.9622 43.1663 97.447 43.5002 98.7012 44.1838L98.9326 44.3127C100.073 44.9773 100.956 45.9003 101.576 47.0754C102.249 48.3291 102.577 49.8083 102.577 51.4993V64.3372C102.577 66.028 102.25 67.5073 101.577 68.761C100.916 70.0147 99.9545 70.9813 98.7012 71.6536C97.4472 72.3262 95.962 72.6536 94.2607 72.6536H84.1592L78.1875 77.9543L78.1885 77.9553C77.7338 78.3657 77.3175 78.6757 76.9424 78.8694L76.9414 78.8684C76.556 79.0781 76.1465 79.1868 75.7168 79.1868C75.0896 79.1867 74.5571 78.9817 74.1709 78.5403C73.793 78.1084 73.6251 77.5416 73.625 76.884V72.6536H72.5234C70.9671 72.6535 69.5742 72.3236 68.3555 71.6516L68.3545 71.6506C67.1457 70.9778 66.1937 70.0132 65.502 68.7659L65.501 68.7629C64.817 67.5088 64.4824 66.029 64.4824 64.3372V51.4993C64.4824 49.8083 64.811 48.3291 65.4834 47.0754C66.1132 45.9013 66.9963 44.9787 68.1279 44.3137L68.3584 44.1838C69.6125 43.5001 71.0974 43.1663 72.7988 43.1663H94.2607Z" stroke="#6D778C" stroke-width="0.747792"/>
<path d="M94.2607 43.1663C95.9622 43.1663 97.447 43.5002 98.7012 44.1838L98.9326 44.3127C100.073 44.9773 100.956 45.9003 101.576 47.0754C102.249 48.3291 102.577 49.8083 102.577 51.4993V64.3372C102.577 66.028 102.25 67.5073 101.577 68.761C100.916 70.0147 99.9545 70.9813 98.7012 71.6536C97.4472 72.3262 95.962 72.6536 94.2607 72.6536H84.1592L78.1875 77.9543L78.1885 77.9553C77.7338 78.3657 77.3175 78.6757 76.9424 78.8694L76.9414 78.8684C76.556 79.0781 76.1465 79.1868 75.7168 79.1868C75.0896 79.1867 74.5571 78.9817 74.1709 78.5403C73.793 78.1084 73.6251 77.5416 73.625 76.884V72.6536H72.5234C70.9671 72.6535 69.5742 72.3236 68.3555 71.6516L68.3545 71.6506C67.1457 70.9778 66.1937 70.0132 65.502 68.7659L65.501 68.7629C64.817 67.5088 64.4824 66.029 64.4824 64.3372V51.4993C64.4824 49.8083 64.811 48.3291 65.4834 47.0754C66.1132 45.9013 66.9963 44.9787 68.1279 44.3137L68.3584 44.1838C69.6125 43.5001 71.0974 43.1663 72.7988 43.1663H94.2607Z" stroke="#F6F8F9" stroke-opacity="0.8" stroke-width="0.747792"/>
<path d="M94.2607 43.1663C95.9622 43.1663 97.447 43.5002 98.7012 44.1838L98.9326 44.3127C100.073 44.9773 100.956 45.9003 101.576 47.0754C102.249 48.3291 102.577 49.8083 102.577 51.4993V64.3372C102.577 66.028 102.25 67.5073 101.577 68.761C100.916 70.0147 99.9545 70.9813 98.7012 71.6536C97.4472 72.3262 95.962 72.6536 94.2607 72.6536H84.1592L78.1875 77.9543L78.1885 77.9553C77.7338 78.3657 77.3175 78.6757 76.9424 78.8694L76.9414 78.8684C76.556 79.0781 76.1465 79.1868 75.7168 79.1868C75.0896 79.1867 74.5571 78.9817 74.1709 78.5403C73.793 78.1084 73.6251 77.5416 73.625 76.884V72.6536H72.5234C70.9671 72.6535 69.5742 72.3236 68.3555 71.6516L68.3545 71.6506C67.1457 70.9778 66.1937 70.0132 65.502 68.7659L65.501 68.7629C64.817 67.5088 64.4824 66.029 64.4824 64.3372V51.4993C64.4824 49.8083 64.811 48.3291 65.4834 47.0754C66.1132 45.9013 66.9963 44.9787 68.1279 44.3137L68.3584 44.1838C69.6125 43.5001 71.0974 43.1663 72.7988 43.1663H94.2607Z" stroke="url(#paint5_linear_16004_17331)" stroke-opacity="0.47" stroke-width="0.747792"/>
<path fill-rule="evenodd" clip-rule="evenodd" d="M69.6758 50.5878C69.6758 49.9019 70.2318 49.3459 70.9176 49.3459L96.1411 49.3459C96.8269 49.3459 97.3829 49.9019 97.3829 50.5878C97.3829 51.2736 96.8269 51.8296 96.1411 51.8296L70.9176 51.8296C70.2318 51.8296 69.6758 51.2736 69.6758 50.5878ZM69.6758 54.3133C69.6758 53.6274 70.2318 53.0714 70.9176 53.0714H96.1411C96.8269 53.0714 97.3829 53.6274 97.3829 54.3133C97.3829 54.9991 96.8269 55.5551 96.1411 55.5551H70.9176C70.2318 55.5551 69.6758 54.9991 69.6758 54.3133ZM69.6758 58.0388C69.6758 57.3529 70.2318 56.7969 70.9176 56.7969H96.1411C96.8269 56.7969 97.3829 57.3529 97.3829 58.0388C97.3829 58.7246 96.8269 59.2806 96.1411 59.2806H70.9176C70.2318 59.2806 69.6758 58.7246 69.6758 58.0388ZM69.6758 61.7642C69.6758 61.0784 70.2318 60.5224 70.9176 60.5224H87.8754C88.5613 60.5224 89.1173 61.0784 89.1173 61.7642C89.1173 62.4501 88.5613 63.0061 87.8754 63.0061H70.9176C70.2318 63.0061 69.6758 62.4501 69.6758 61.7642Z" fill="#6D778C"/>
<path fill-rule="evenodd" clip-rule="evenodd" d="M69.6758 50.5878C69.6758 49.9019 70.2318 49.3459 70.9176 49.3459L96.1411 49.3459C96.8269 49.3459 97.3829 49.9019 97.3829 50.5878C97.3829 51.2736 96.8269 51.8296 96.1411 51.8296L70.9176 51.8296C70.2318 51.8296 69.6758 51.2736 69.6758 50.5878ZM69.6758 54.3133C69.6758 53.6274 70.2318 53.0714 70.9176 53.0714H96.1411C96.8269 53.0714 97.3829 53.6274 97.3829 54.3133C97.3829 54.9991 96.8269 55.5551 96.1411 55.5551H70.9176C70.2318 55.5551 69.6758 54.9991 69.6758 54.3133ZM69.6758 58.0388C69.6758 57.3529 70.2318 56.7969 70.9176 56.7969H96.1411C96.8269 56.7969 97.3829 57.3529 97.3829 58.0388C97.3829 58.7246 96.8269 59.2806 96.1411 59.2806H70.9176C70.2318 59.2806 69.6758 58.7246 69.6758 58.0388ZM69.6758 61.7642C69.6758 61.0784 70.2318 60.5224 70.9176 60.5224H87.8754C88.5613 60.5224 89.1173 61.0784 89.1173 61.7642C89.1173 62.4501 88.5613 63.0061 87.8754 63.0061H70.9176C70.2318 63.0061 69.6758 62.4501 69.6758 61.7642Z" fill="#F6F8F9" fill-opacity="0.65"/>
<path fill-rule="evenodd" clip-rule="evenodd" d="M69.6758 50.5878C69.6758 49.9019 70.2318 49.3459 70.9176 49.3459L96.1411 49.3459C96.8269 49.3459 97.3829 49.9019 97.3829 50.5878C97.3829 51.2736 96.8269 51.8296 96.1411 51.8296L70.9176 51.8296C70.2318 51.8296 69.6758 51.2736 69.6758 50.5878ZM69.6758 54.3133C69.6758 53.6274 70.2318 53.0714 70.9176 53.0714H96.1411C96.8269 53.0714 97.3829 53.6274 97.3829 54.3133C97.3829 54.9991 96.8269 55.5551 96.1411 55.5551H70.9176C70.2318 55.5551 69.6758 54.9991 69.6758 54.3133ZM69.6758 58.0388C69.6758 57.3529 70.2318 56.7969 70.9176 56.7969H96.1411C96.8269 56.7969 97.3829 57.3529 97.3829 58.0388C97.3829 58.7246 96.8269 59.2806 96.1411 59.2806H70.9176C70.2318 59.2806 69.6758 58.7246 69.6758 58.0388ZM69.6758 61.7642C69.6758 61.0784 70.2318 60.5224 70.9176 60.5224H87.8754C88.5613 60.5224 89.1173 61.0784 89.1173 61.7642C89.1173 62.4501 88.5613 63.0061 87.8754 63.0061H70.9176C70.2318 63.0061 69.6758 62.4501 69.6758 61.7642Z" stroke="url(#paint6_linear_16004_17331)" stroke-opacity="0.35" stroke-width="2.58824" stroke-linecap="round"/>
</g>
<g filter="url(#filter2_d_16004_17331)">
<path d="M32.0938 41.925C30.8281 41.925 29.7174 42.1733 28.7764 42.6858H28.7754C27.8341 43.1907 27.111 43.9176 26.6143 44.8596H26.6152C26.1113 45.8 25.8672 46.9056 25.8672 48.1633V57.6233C25.8672 58.8807 26.1116 59.9858 26.6152 60.926C27.1119 61.8681 27.8341 62.596 28.7754 63.1008C29.7166 63.6056 30.8276 63.8499 32.0938 63.8499H39.5L43.8711 67.7297L43.8701 67.7307C44.2051 68.033 44.517 68.265 44.8018 68.4133C45.1012 68.5775 45.4209 68.6633 45.7568 68.6633C46.2419 68.6633 46.6641 68.504 46.9707 68.1536C47.2691 67.8126 47.3975 67.3687 47.3975 66.8674V63.8499H48.1104C49.2715 63.8498 50.315 63.6031 51.2295 63.0989L51.2305 63.0979C52.1378 62.5929 52.8519 61.8684 53.3701 60.9338L53.5518 60.5706C53.9433 59.7108 54.1338 58.7253 54.1338 57.6233V48.1633C54.1338 46.9048 53.8893 45.7984 53.3848 44.8577C52.8807 43.9179 52.1592 43.1916 51.2266 42.6868C50.2851 42.1735 49.1739 41.9251 47.9072 41.925H32.0938Z" fill="white"/>
<path d="M32.0938 41.925C30.8281 41.925 29.7174 42.1733 28.7764 42.6858H28.7754C27.8341 43.1907 27.111 43.9176 26.6143 44.8596H26.6152C26.1113 45.8 25.8672 46.9056 25.8672 48.1633V57.6233C25.8672 58.8807 26.1116 59.9858 26.6152 60.926C27.1119 61.8681 27.8341 62.596 28.7754 63.1008C29.7166 63.6056 30.8276 63.8499 32.0938 63.8499H39.5L43.8711 67.7297L43.8701 67.7307C44.2051 68.033 44.517 68.265 44.8018 68.4133C45.1012 68.5775 45.4209 68.6633 45.7568 68.6633C46.2419 68.6633 46.6641 68.504 46.9707 68.1536C47.2691 67.8126 47.3975 67.3687 47.3975 66.8674V63.8499H48.1104C49.2715 63.8498 50.315 63.6031 51.2295 63.0989L51.2305 63.0979C52.1378 62.5929 52.8519 61.8684 53.3701 60.9338L53.5518 60.5706C53.9433 59.7108 54.1338 58.7253 54.1338 57.6233V48.1633C54.1338 46.9048 53.8893 45.7984 53.3848 44.8577C52.8807 43.9179 52.1592 43.1916 51.2266 42.6868C50.2851 42.1735 49.1739 41.9251 47.9072 41.925H32.0938Z" fill="url(#paint7_linear_16004_17331)"/>
<path d="M32.0938 41.925C30.8281 41.925 29.7174 42.1733 28.7764 42.6858H28.7754C27.8341 43.1907 27.111 43.9176 26.6143 44.8596H26.6152C26.1113 45.8 25.8672 46.9056 25.8672 48.1633V57.6233C25.8672 58.8807 26.1116 59.9858 26.6152 60.926C27.1119 61.8681 27.8341 62.596 28.7754 63.1008C29.7166 63.6056 30.8276 63.8499 32.0938 63.8499H39.5L43.8711 67.7297L43.8701 67.7307C44.2051 68.033 44.517 68.265 44.8018 68.4133C45.1012 68.5775 45.4209 68.6633 45.7568 68.6633C46.2419 68.6633 46.6641 68.504 46.9707 68.1536C47.2691 67.8126 47.3975 67.3687 47.3975 66.8674V63.8499H48.1104C49.2715 63.8498 50.315 63.6031 51.2295 63.0989L51.2305 63.0979C52.1378 62.5929 52.8519 61.8684 53.3701 60.9338L53.5518 60.5706C53.9433 59.7108 54.1338 58.7253 54.1338 57.6233V48.1633C54.1338 46.9048 53.8893 45.7984 53.3848 44.8577C52.8807 43.9179 52.1592 43.1916 51.2266 42.6868C50.2851 42.1735 49.1739 41.9251 47.9072 41.925H32.0938Z" stroke="#6D778C" stroke-width="0.747792"/>
<path d="M32.0938 41.925C30.8281 41.925 29.7174 42.1733 28.7764 42.6858H28.7754C27.8341 43.1907 27.111 43.9176 26.6143 44.8596H26.6152C26.1113 45.8 25.8672 46.9056 25.8672 48.1633V57.6233C25.8672 58.8807 26.1116 59.9858 26.6152 60.926C27.1119 61.8681 27.8341 62.596 28.7754 63.1008C29.7166 63.6056 30.8276 63.8499 32.0938 63.8499H39.5L43.8711 67.7297L43.8701 67.7307C44.2051 68.033 44.517 68.265 44.8018 68.4133C45.1012 68.5775 45.4209 68.6633 45.7568 68.6633C46.2419 68.6633 46.6641 68.504 46.9707 68.1536C47.2691 67.8126 47.3975 67.3687 47.3975 66.8674V63.8499H48.1104C49.2715 63.8498 50.315 63.6031 51.2295 63.0989L51.2305 63.0979C52.1378 62.5929 52.8519 61.8684 53.3701 60.9338L53.5518 60.5706C53.9433 59.7108 54.1338 58.7253 54.1338 57.6233V48.1633C54.1338 46.9048 53.8893 45.7984 53.3848 44.8577C52.8807 43.9179 52.1592 43.1916 51.2266 42.6868C50.2851 42.1735 49.1739 41.9251 47.9072 41.925H32.0938Z" stroke="#F6F8F9" stroke-opacity="0.8" stroke-width="0.747792"/>
<path d="M32.0938 41.925C30.8281 41.925 29.7174 42.1733 28.7764 42.6858H28.7754C27.8341 43.1907 27.111 43.9176 26.6143 44.8596H26.6152C26.1113 45.8 25.8672 46.9056 25.8672 48.1633V57.6233C25.8672 58.8807 26.1116 59.9858 26.6152 60.926C27.1119 61.8681 27.8341 62.596 28.7754 63.1008C29.7166 63.6056 30.8276 63.8499 32.0938 63.8499H39.5L43.8711 67.7297L43.8701 67.7307C44.2051 68.033 44.517 68.265 44.8018 68.4133C45.1012 68.5775 45.4209 68.6633 45.7568 68.6633C46.2419 68.6633 46.6641 68.504 46.9707 68.1536C47.2691 67.8126 47.3975 67.3687 47.3975 66.8674V63.8499H48.1104C49.2715 63.8498 50.315 63.6031 51.2295 63.0989L51.2305 63.0979C52.1378 62.5929 52.8519 61.8684 53.3701 60.9338L53.5518 60.5706C53.9433 59.7108 54.1338 58.7253 54.1338 57.6233V48.1633C54.1338 46.9048 53.8893 45.7984 53.3848 44.8577C52.8807 43.9179 52.1592 43.1916 51.2266 42.6868C50.2851 42.1735 49.1739 41.9251 47.9072 41.925H32.0938Z" stroke="url(#paint8_linear_16004_17331)" stroke-opacity="0.47" stroke-width="0.747792"/>
<path fill-rule="evenodd" clip-rule="evenodd" d="M29.792 47.4919C29.792 46.9866 30.2017 46.5769 30.707 46.5769L49.2927 46.5769C49.7981 46.5769 50.2078 46.9866 50.2078 47.4919C50.2078 47.9973 49.7981 48.407 49.2927 48.407L30.707 48.407C30.2017 48.407 29.792 47.9973 29.792 47.4919ZM29.792 50.237C29.792 49.7317 30.2017 49.322 30.707 49.322H49.2927C49.7981 49.322 50.2078 49.7317 50.2078 50.237C50.2078 50.7424 49.7981 51.1521 49.2927 51.1521H30.707C30.2017 51.1521 29.792 50.7424 29.792 50.237ZM29.792 52.9821C29.792 52.4768 30.2017 52.0671 30.707 52.0671H37.9692C38.4746 52.0671 38.8842 52.4768 38.8842 52.9821C38.8842 53.4875 38.4746 53.8972 37.9692 53.8972L30.707 53.8972C30.2017 53.8972 29.792 53.4875 29.792 52.9821Z" fill="#6D778C"/>
<path fill-rule="evenodd" clip-rule="evenodd" d="M29.792 47.4919C29.792 46.9866 30.2017 46.5769 30.707 46.5769L49.2927 46.5769C49.7981 46.5769 50.2078 46.9866 50.2078 47.4919C50.2078 47.9973 49.7981 48.407 49.2927 48.407L30.707 48.407C30.2017 48.407 29.792 47.9973 29.792 47.4919ZM29.792 50.237C29.792 49.7317 30.2017 49.322 30.707 49.322H49.2927C49.7981 49.322 50.2078 49.7317 50.2078 50.237C50.2078 50.7424 49.7981 51.1521 49.2927 51.1521H30.707C30.2017 51.1521 29.792 50.7424 29.792 50.237ZM29.792 52.9821C29.792 52.4768 30.2017 52.0671 30.707 52.0671H37.9692C38.4746 52.0671 38.8842 52.4768 38.8842 52.9821C38.8842 53.4875 38.4746 53.8972 37.9692 53.8972L30.707 53.8972C30.2017 53.8972 29.792 53.4875 29.792 52.9821Z" fill="#F6F8F9" fill-opacity="0.65"/>
<path fill-rule="evenodd" clip-rule="evenodd" d="M29.792 47.4919C29.792 46.9866 30.2017 46.5769 30.707 46.5769L49.2927 46.5769C49.7981 46.5769 50.2078 46.9866 50.2078 47.4919C50.2078 47.9973 49.7981 48.407 49.2927 48.407L30.707 48.407C30.2017 48.407 29.792 47.9973 29.792 47.4919ZM29.792 50.237C29.792 49.7317 30.2017 49.322 30.707 49.322H49.2927C49.7981 49.322 50.2078 49.7317 50.2078 50.237C50.2078 50.7424 49.7981 51.1521 49.2927 51.1521H30.707C30.2017 51.1521 29.792 50.7424 29.792 50.237ZM29.792 52.9821C29.792 52.4768 30.2017 52.0671 30.707 52.0671H37.9692C38.4746 52.0671 38.8842 52.4768 38.8842 52.9821C38.8842 53.4875 38.4746 53.8972 37.9692 53.8972L30.707 53.8972C30.2017 53.8972 29.792 53.4875 29.792 52.9821Z" stroke="url(#paint9_linear_16004_17331)" stroke-opacity="0.35" stroke-width="2.0915" stroke-linecap="round"/>
</g>
<defs>
<filter id="filter0_d_16004_17331" x="26.1446" y="-1.63329" width="55.9453" height="55.9453" filterUnits="userSpaceOnUse" color-interpolation-filters="sRGB">
<feFlood flood-opacity="0" result="BackgroundImageFix"/>
<feColorMatrix in="SourceAlpha" type="matrix" values="0 0 0 0 0 0 0 0 0 0 0 0 0 0 0 0 0 0 127 0" result="hardAlpha"/>
<feOffset dy="3.98632"/>
<feGaussianBlur stdDeviation="3.98632"/>
<feComposite in2="hardAlpha" operator="out"/>
<feColorMatrix type="matrix" values="0 0 0 0 0.0941176 0 0 0 0 0.105882 0 0 0 0 0.141176 0 0 0 0.05 0"/>
<feBlend mode="normal" in2="BackgroundImageFix" result="effect1_dropShadow_16004_17331"/>
<feBlend mode="normal" in="SourceGraphic" in2="effect1_dropShadow_16004_17331" result="shape"/>
</filter>
<filter id="filter1_d_16004_17331" x="53.2041" y="34.8372" width="60.6513" height="60.6512" filterUnits="userSpaceOnUse" color-interpolation-filters="sRGB">
<feFlood flood-opacity="0" result="BackgroundImageFix"/>
<feColorMatrix in="SourceAlpha" type="matrix" values="0 0 0 0 0 0 0 0 0 0 0 0 0 0 0 0 0 0 127 0" result="hardAlpha"/>
<feOffset dy="3.98632"/>
<feGaussianBlur stdDeviation="3.98632"/>
<feComposite in2="hardAlpha" operator="out"/>
<feColorMatrix type="matrix" values="0 0 0 0 0.0941176 0 0 0 0 0.105882 0 0 0 0 0.141176 0 0 0 0.05 0"/>
<feBlend mode="normal" in2="BackgroundImageFix" result="effect1_dropShadow_16004_17331"/>
<feBlend mode="normal" in="SourceGraphic" in2="effect1_dropShadow_16004_17331" result="shape"/>
</filter>
<filter id="filter2_d_16004_17331" x="15.5567" y="34.8372" width="48.8867" height="48.8864" filterUnits="userSpaceOnUse" color-interpolation-filters="sRGB">
<feFlood flood-opacity="0" result="BackgroundImageFix"/>
<feColorMatrix in="SourceAlpha" type="matrix" values="0 0 0 0 0 0 0 0 0 0 0 0 0 0 0 0 0 0 127 0" result="hardAlpha"/>
<feOffset dy="3.98632"/>
<feGaussianBlur stdDeviation="3.98632"/>
<feComposite in2="hardAlpha" operator="out"/>
<feColorMatrix type="matrix" values="0 0 0 0 0.0941176 0 0 0 0 0.105882 0 0 0 0 0.141176 0 0 0 0.05 0"/>
<feBlend mode="normal" in2="BackgroundImageFix" result="effect1_dropShadow_16004_17331"/>
<feBlend mode="normal" in="SourceGraphic" in2="effect1_dropShadow_16004_17331" result="shape"/>
</filter>
<radialGradient id="paint0_radial_16004_17331" cx="0" cy="0" r="1" gradientTransform="matrix(-0.316741 40.8909 -57.3301 -0.406105 60.2939 42.6462)" gradientUnits="userSpaceOnUse">
<stop stop-color="#F6F8F9" stop-opacity="0.65"/>
<stop offset="1" stop-color="white"/>
</radialGradient>
<linearGradient id="paint1_linear_16004_17331" x1="54.1172" y1="6.57324" x2="54.1174" y2="32.353" gradientUnits="userSpaceOnUse">
<stop stop-color="white"/>
<stop offset="1" stop-color="#F6F8F9"/>
</linearGradient>
<linearGradient id="paint2_linear_16004_17331" x1="64.1174" y1="2.35297" x2="42.8674" y2="39.228" gradientUnits="userSpaceOnUse">
<stop stop-color="#F6F8F9" stop-opacity="0"/>
<stop offset="0.504808" stop-color="white"/>
<stop offset="1" stop-color="#F6F8F9" stop-opacity="0"/>
</linearGradient>
<linearGradient id="paint3_linear_16004_17331" x1="46.698" y1="10.1334" x2="51.9458" y2="27.578" gradientUnits="userSpaceOnUse">
<stop stop-color="#F6F8F9" stop-opacity="0"/>
<stop offset="0.504808" stop-color="white"/>
<stop offset="1" stop-color="#F6F8F9" stop-opacity="0"/>
</linearGradient>
<linearGradient id="paint4_linear_16004_17331" x1="83.53" y1="43.5403" x2="83.5298" y2="72.3529" gradientUnits="userSpaceOnUse">
<stop stop-color="white"/>
<stop offset="1" stop-color="#F6F8F9"/>
</linearGradient>
<linearGradient id="paint5_linear_16004_17331" x1="72.3534" y1="38.8235" x2="96.1034" y2="80.0367" gradientUnits="userSpaceOnUse">
<stop stop-color="#F6F8F9" stop-opacity="0"/>
<stop offset="0.504808" stop-color="white"/>
<stop offset="1" stop-color="#F6F8F9" stop-opacity="0"/>
</linearGradient>
<linearGradient id="paint6_linear_16004_17331" x1="75.2376" y1="47.5193" x2="81.1027" y2="67.0162" gradientUnits="userSpaceOnUse">
<stop stop-color="#F6F8F9" stop-opacity="0"/>
<stop offset="0.504808" stop-color="white"/>
<stop offset="1" stop-color="#F6F8F9" stop-opacity="0"/>
</linearGradient>
<linearGradient id="paint7_linear_16004_17331" x1="40.0003" y1="42.2991" x2="40.0004" y2="63.5294" gradientUnits="userSpaceOnUse">
<stop stop-color="white"/>
<stop offset="1" stop-color="#F6F8F9"/>
</linearGradient>
<linearGradient id="paint8_linear_16004_17331" x1="48.2357" y1="38.8236" x2="30.7357" y2="69.1912" gradientUnits="userSpaceOnUse">
<stop stop-color="#F6F8F9" stop-opacity="0"/>
<stop offset="0.504808" stop-color="white"/>
<stop offset="1" stop-color="#F6F8F9" stop-opacity="0"/>
</linearGradient>
<linearGradient id="paint9_linear_16004_17331" x1="33.8902" y1="45.598" x2="36.269" y2="56.4712" gradientUnits="userSpaceOnUse">
<stop stop-color="#F6F8F9" stop-opacity="0"/>
<stop offset="0.504808" stop-color="white"/>
<stop offset="1" stop-color="#F6F8F9" stop-opacity="0"/>
</linearGradient>
</defs>
</svg>
