<svg width="32" height="32" viewBox="0 0 32 32" fill="none" xmlns="http://www.w3.org/2000/svg">
<path d="M16.6195 20.2912C17.3048 19.9909 18.1066 20.2053 18.5501 20.8079C18.6026 20.8792 18.6555 20.9704 18.7601 21.1516C18.8646 21.3326 18.9169 21.4231 18.9525 21.5041C19.2529 22.1896 19.0378 22.9923 18.4349 23.4358C18.3636 23.4882 18.273 23.5403 18.0921 23.6448L11.0462 27.7121C10.8652 27.8167 10.7747 27.87 10.6937 27.9055C10.0083 28.2059 9.20551 27.9907 8.76204 27.3879C8.70956 27.3166 8.65767 27.2254 8.55305 27.0442C8.44856 26.8632 8.39621 26.7727 8.36067 26.6916C8.06028 26.0062 8.27441 25.2035 8.87727 24.76C8.94861 24.7075 9.03982 24.6556 9.22102 24.551L16.2669 20.4836C16.4479 20.3791 16.5384 20.3268 16.6195 20.2912Z" fill="#C83F49"/>
<path d="M21.1663 4.17699C21.8517 3.87667 22.6535 4.09102 23.097 4.69359C23.1495 4.76494 23.2023 4.85614 23.307 5.03734C23.4114 5.21831 23.4638 5.30883 23.4993 5.38988C23.7997 6.07537 23.5846 6.87807 22.9818 7.32152C22.9105 7.37393 22.8198 7.42609 22.639 7.53051L15.5931 11.5979C15.4121 11.7024 15.3216 11.7557 15.2406 11.7913C14.5551 12.0916 13.7524 11.8764 13.3089 11.2737C13.2564 11.2023 13.2045 11.1111 13.0999 10.9299C12.9954 10.7489 12.9431 10.6584 12.9075 10.5774C12.6072 9.89191 12.8213 9.0892 13.4241 8.64574C13.4955 8.59327 13.5867 8.54138 13.7679 8.43676L20.8138 4.36938C20.9948 4.26487 21.0853 4.21252 21.1663 4.17699Z" fill="#C83F49"/>
<path d="M20.7143 24.6711C21.3998 24.3708 22.2016 24.5859 22.645 25.1887C22.6975 25.26 22.7504 25.3504 22.855 25.5315C22.9596 25.7127 23.0118 25.8039 23.0473 25.885C23.3475 26.5704 23.1325 27.3723 22.5298 27.8157C22.4584 27.8681 22.3681 27.9211 22.187 28.0256L16.8569 31.1018C16.6759 31.2063 16.5854 31.2586 16.5044 31.2942C15.8191 31.5945 15.0173 31.3801 14.5737 30.7776C14.5212 30.7062 14.4684 30.615 14.3638 30.4338C14.2593 30.2529 14.2069 30.1623 14.1714 30.0813C13.871 29.3958 14.0861 28.5931 14.689 28.1497C14.7602 28.0973 14.8509 28.0451 15.0317 27.9407L20.3608 24.8635C20.542 24.7589 20.6332 24.7067 20.7143 24.6711Z" fill="#2845C1"/>
<path d="M27.0825 20.9944C27.7679 20.6942 28.5697 20.9092 29.0132 21.512C29.0656 21.5833 29.1186 21.6736 29.2231 21.8547C29.3277 22.0359 29.38 22.1271 29.4155 22.2082C29.7157 22.8936 29.5006 23.6955 28.8979 24.1389C28.8266 24.1914 28.7362 24.2443 28.5552 24.3489L27.1997 25.1311C27.0187 25.2356 26.9282 25.288 26.8472 25.3235C26.1617 25.6239 25.359 25.4088 24.9155 24.8059C24.8631 24.7346 24.811 24.644 24.7065 24.4631C24.6019 24.2819 24.5497 24.1907 24.5141 24.1096C24.2138 23.4241 24.4288 22.6224 25.0317 22.179C25.103 22.1265 25.1934 22.0735 25.3745 21.969L26.729 21.1868C26.9102 21.0821 27.0014 21.0299 27.0825 20.9944Z" fill="#2845C1"/>
<path d="M5.52827 19.9058C6.21376 19.6054 7.01646 19.8205 7.45991 20.4234C7.51229 20.4947 7.56449 20.5853 7.6689 20.7662C7.77351 20.9474 7.82573 21.0386 7.86128 21.1197C8.16145 21.8051 7.94649 22.607 7.3437 23.0504C7.27242 23.1028 7.18181 23.1549 7.00093 23.2593L5.62022 24.0805C5.43911 24.185 5.34878 24.2383 5.26768 24.2738C4.58239 24.574 3.78048 24.3588 3.33702 23.7562C3.28454 23.6849 3.23168 23.5937 3.12706 23.4125C3.02257 23.2315 2.9702 23.141 2.93468 23.06C2.63429 22.3745 2.84937 21.5718 3.45225 21.1283C3.52353 21.0759 3.61419 21.0237 3.79503 20.9193L5.17573 20.0982C5.3567 19.9937 5.44722 19.9414 5.52827 19.9058Z" fill="#2845C1"/>
<path d="M27.0073 14.2932C27.6927 13.993 28.4945 14.2081 28.938 14.8108C28.9904 14.8821 29.0434 14.9725 29.1479 15.1536C29.2526 15.3348 29.3048 15.426 29.3403 15.5071C29.6405 16.1925 29.4255 16.9943 28.8227 17.4377C28.7514 17.4902 28.6611 17.5431 28.48 17.6477L23.1499 20.7239C22.9687 20.8285 22.8785 20.8817 22.7973 20.9172C22.1121 21.2175 21.3102 21.0022 20.8667 20.3997C20.8142 20.3283 20.7613 20.2371 20.6567 20.0559C20.5522 19.8749 20.4999 19.7844 20.4643 19.7034C20.164 19.0179 20.379 18.2152 20.9819 17.7717C21.0532 17.7193 21.1439 17.6671 21.3247 17.5627L26.6538 14.4856C26.835 14.381 26.9262 14.3288 27.0073 14.2932Z" fill="#2845C1"/>
<path d="M26.8778 7.66592C27.5632 7.36569 28.3651 7.58075 28.8085 8.1835C28.861 8.25482 28.9139 8.34515 29.0185 8.52627C29.1231 8.70747 29.1753 8.79867 29.2109 8.87979C29.511 9.56514 29.296 10.367 28.6933 10.8105C28.6219 10.8629 28.5307 10.9158 28.3495 11.0204L12.0595 20.3394C11.8783 20.444 11.7871 20.4963 11.706 20.5318C11.0206 20.832 10.2187 20.617 9.77534 20.0142C9.72288 19.9429 9.66997 19.8526 9.56538 19.6714C9.46078 19.4903 9.40854 19.399 9.373 19.3179C9.07292 18.6326 9.28793 17.8306 9.89058 17.3873C9.96192 17.3348 10.0531 17.2829 10.2343 17.1783L26.5243 7.8583C26.7055 7.75369 26.7967 7.70147 26.8778 7.66592Z" fill="#2845C1"/>
<path d="M9.062 11.1653C9.74742 10.8649 10.5502 11.0791 10.9936 11.6819C11.0461 11.7532 11.098 11.8444 11.2026 12.0256C11.3071 12.2066 11.3595 12.2971 11.395 12.3782C11.6954 13.0637 11.4803 13.8664 10.8774 14.3098C10.8062 14.3622 10.7155 14.4144 10.5347 14.5188L5.40554 17.4575C5.22434 17.5621 5.13314 17.6144 5.05202 17.6499C4.36662 17.95 3.56473 17.7351 3.12136 17.1323C3.06893 17.0611 3.01682 16.9705 2.91238 16.7896C2.80776 16.6084 2.75456 16.5172 2.71902 16.436C2.41893 15.7507 2.63404 14.9488 3.2366 14.5054C3.30794 14.4529 3.39914 14.4 3.58035 14.2954L8.70946 11.3577C8.89031 11.2532 8.981 11.2008 9.062 11.1653Z" fill="#2845C1"/>
<path d="M9.07762 4.41137C9.76301 4.11112 10.5648 4.32624 11.0083 4.92895C11.0607 5.00027 11.1137 5.09065 11.2182 5.27173C11.3229 5.45293 11.3751 5.54413 11.4106 5.62524C11.7109 6.31063 11.4958 7.11248 10.8931 7.55591C10.8217 7.60837 10.7314 7.66131 10.5503 7.76587L5.2202 10.842C5.03903 10.9466 4.94877 10.9999 4.86766 11.0354C4.18237 11.3356 3.3805 11.1203 2.937 10.5178C2.88452 10.4465 2.83166 10.3553 2.72704 10.1741C2.62255 9.99309 2.57019 9.90259 2.53466 9.82153C2.23427 9.13604 2.44935 8.33334 3.05223 7.88989C3.12351 7.83751 3.21417 7.78531 3.39501 7.68091L8.72411 4.60376C8.90531 4.49914 8.99651 4.44692 9.07762 4.41137Z" fill="#2845C1"/>
<path d="M15.4458 0.734617C16.1311 0.434378 16.933 0.649545 17.3765 1.25219C17.4289 1.32354 17.4818 1.41474 17.5864 1.59594C17.6909 1.77685 17.7433 1.86744 17.7788 1.94848C18.0791 2.63389 17.864 3.4357 17.2612 3.87915C17.1899 3.93161 17.0995 3.98456 16.9184 4.08911L15.563 4.87134C15.382 4.97581 15.2915 5.02819 15.2104 5.06372C14.525 5.36411 13.7222 5.14903 13.2788 4.54614C13.2264 4.47487 13.1742 4.38422 13.0698 4.20337C12.9652 4.02216 12.913 3.93097 12.8774 3.84985C12.5772 3.1644 12.7922 2.3626 13.395 1.91919C13.4663 1.86674 13.5567 1.81379 13.7378 1.70923L15.0932 0.926999C15.2741 0.822576 15.3647 0.770129 15.4458 0.734617Z" fill="#2845C1"/>
</svg>
