<svg xmlns="http://www.w3.org/2000/svg" width="22" height="18" viewBox="0 0 22 18" fill="none">
<path d="M3.04601 17.3381C2.04306 17.3381 1.28465 17.0812 0.770789 16.5673C0.25693 16.0597 0 15.3105 0 14.32V3.01815C0 2.02139 0.25693 1.26917 0.770789 0.761503C1.28465 0.253834 2.04306 0 3.04601 0H18.9447C19.9538 0 20.7154 0.253834 21.2292 0.761503C21.7431 1.26917 22 2.02139 22 3.01815V14.32C22 15.3105 21.7431 16.0597 21.2292 16.5673C20.7154 17.0812 19.9538 17.3381 18.9447 17.3381H3.04601ZM3.15745 15.5087H18.8425C19.2697 15.5087 19.5979 15.3972 19.8269 15.1743C20.056 14.9515 20.1705 14.614 20.1705 14.1621V3.16674C20.1705 2.72098 20.056 2.38666 19.8269 2.16378C19.5979 1.9409 19.2697 1.82946 18.8425 1.82946H3.15745C2.72407 1.82946 2.39285 1.9409 2.16378 2.16378C1.9409 2.38666 1.82946 2.72098 1.82946 3.16674V14.1621C1.82946 14.614 1.9409 14.9515 2.16378 15.1743C2.39285 15.3972 2.72407 15.5087 3.15745 15.5087ZM7.38286 15.8058V1.51372H9.11946V15.8058H7.38286ZM5.56268 5.22837H3.65893C3.49796 5.22837 3.35556 5.16646 3.23174 5.04263C3.11411 4.91881 3.0553 4.78261 3.0553 4.63402C3.0553 4.47306 3.11411 4.33376 3.23174 4.21613C3.35556 4.09849 3.49796 4.03968 3.65893 4.03968H5.56268C5.72984 4.03968 5.87224 4.09849 5.98987 4.21613C6.11369 4.33376 6.1756 4.47306 6.1756 4.63402C6.1756 4.78261 6.11369 4.91881 5.98987 5.04263C5.87224 5.16646 5.72984 5.22837 5.56268 5.22837ZM5.56268 7.71718H3.65893C3.49796 7.71718 3.35556 7.65837 3.23174 7.54074C3.11411 7.41691 3.0553 7.27452 3.0553 7.11355C3.0553 6.95877 3.11411 6.82257 3.23174 6.70494C3.35556 6.58731 3.49796 6.52849 3.65893 6.52849H5.56268C5.72984 6.52849 5.87224 6.58731 5.98987 6.70494C6.11369 6.82257 6.1756 6.95877 6.1756 7.11355C6.1756 7.27452 6.11369 7.41691 5.98987 7.54074C5.87224 7.65837 5.72984 7.71718 5.56268 7.71718ZM5.56268 10.1967H3.65893C3.49796 10.1967 3.35556 10.1379 3.23174 10.0203C3.11411 9.90263 3.0553 9.76643 3.0553 9.61165C3.0553 9.45068 3.11411 9.31138 3.23174 9.19375C3.35556 9.07612 3.49796 9.01731 3.65893 9.01731H5.56268C5.72984 9.01731 5.87224 9.07612 5.98987 9.19375C6.11369 9.31138 6.1756 9.45068 6.1756 9.61165C6.1756 9.76643 6.11369 9.90263 5.98987 10.0203C5.87224 10.1379 5.72984 10.1967 5.56268 10.1967Z" fill="var(--c--contextuals--content--semantic--neutral--tertiary)"/>
</svg>